<svg width="32" height="22" viewBox="0 0 32 22" fill="none" xmlns="http://www.w3.org/2000/svg">
<path d="M1.37451 21.7499C1.05564 21.7499 0.788512 21.6421 0.573137 21.4265C0.357712 21.2109 0.25 20.9437 0.25 20.6249V1.875C0.25 1.55625 0.357875 1.28906 0.573625 1.07344C0.789325 0.857813 1.05661 0.75 1.37549 0.75C1.69439 0.75 1.96152 0.857813 2.1769 1.07344C2.3923 1.28906 2.5 1.55625 2.5 1.875V15H14.875V5.99996C14.875 5.38651 15.0967 4.85816 15.5399 4.41491C15.9832 3.97164 16.5115 3.75 17.125 3.75H26.5C27.9437 3.75 29.1796 4.26406 30.2078 5.29219C31.2359 6.32031 31.75 7.55624 31.75 8.99996V20.6249C31.75 20.9437 31.6421 21.2109 31.4264 21.4265C31.2106 21.6421 30.9433 21.7499 30.6245 21.7499C30.3056 21.7499 30.0384 21.6421 29.8231 21.4265C29.6077 21.2109 29.5 20.9437 29.5 20.6249V17.2499H2.5V20.6249C2.5 20.9437 2.39214 21.2109 2.17641 21.4265C1.96071 21.6421 1.69341 21.7499 1.37451 21.7499ZM8.49831 12.8364C7.43214 12.8364 6.52646 12.4633 5.78129 11.717C5.03611 10.9707 4.66352 10.0644 4.66352 8.99828C4.66352 7.9321 5.03667 7.02643 5.78297 6.28125C6.5293 5.53608 7.43554 5.16349 8.50169 5.16349C9.56786 5.16349 10.4735 5.53664 11.2187 6.28294C11.9639 7.02926 12.3365 7.9355 12.3365 9.00165C12.3365 10.0678 11.9633 10.9735 11.217 11.7187C10.4707 12.4639 9.56446 12.8364 8.49831 12.8364ZM17.125 15H29.5V8.99996C29.5 8.17496 29.2062 7.46871 28.6187 6.88121C28.0312 6.29371 27.325 5.99996 26.5 5.99996H17.125V15ZM8.5 10.5865C8.94422 10.5865 9.31971 10.4332 9.62646 10.1264C9.93319 9.81968 10.0865 9.44419 10.0865 8.99996C10.0865 8.55574 9.93319 8.18025 9.62646 7.8735C9.31971 7.56678 8.94422 7.41341 8.5 7.41341C8.05577 7.41341 7.68029 7.56678 7.37354 7.8735C7.06681 8.18025 6.91345 8.55574 6.91345 8.99996C6.91345 9.44419 7.06681 9.81968 7.37354 10.1264C7.68029 10.4332 8.05577 10.5865 8.5 10.5865Z" fill="#0F4C82"/>
</svg>
