<svg width="22" height="30" viewBox="0 0 22 30" fill="none" xmlns="http://www.w3.org/2000/svg">
<path d="M4.37528 29.625V15.9865C3.15798 15.723 2.1325 15.1072 1.29885 14.1389C0.465177 13.1706 0.0483398 12.0154 0.0483398 10.6731V0.375H2.2983V10.6731H4.37528V0.375H6.6252V10.6731H8.70218V0.375H10.9521V10.6731C10.9521 12.0154 10.5353 13.1706 9.70163 14.1389C8.86798 15.1072 7.8425 15.723 6.6252 15.9865V29.6249L4.37528 29.625ZM18.7983 29.625V17.6249H14.7022V7.49996C14.7022 5.62691 15.3036 4.0024 16.5065 2.62643C17.7093 1.25048 19.2233 0.509614 21.0483 0.403839V29.625H18.7983Z" fill="#0F4C82"/>
</svg>
