<svg width="23" height="28" viewBox="0 0 23 28" fill="none" xmlns="http://www.w3.org/2000/svg">
<path d="M5.32686 24.7499V26.1634C5.32686 26.6041 5.17246 26.9787 4.86366 27.2872C4.55484 27.5957 4.17985 27.7499 3.7387 27.7499C3.29752 27.7499 2.9231 27.5957 2.61542 27.2872C2.30772 26.9787 2.15387 26.6041 2.15387 26.1634V23.6653C1.68465 23.3096 1.25004 22.8062 0.850037 22.1552C0.450012 21.5043 0.25 20.773 0.25 19.9615V5.99996C0.25 4.18436 1.15231 2.85548 2.95694 2.0133C4.76154 1.1711 7.60905 0.75 11.4995 0.75C15.5306 0.75 18.4134 1.15469 20.148 1.96406C21.8826 2.77344 22.7499 4.11874 22.7499 5.99996V19.9615C22.7499 20.773 22.5499 21.5043 22.1499 22.1552C21.7499 22.8062 21.3153 23.3096 20.8461 23.6653V26.1634C20.8461 26.6041 20.6916 26.9787 20.3828 27.2872C20.074 27.5957 19.699 27.7499 19.2579 27.7499C18.8167 27.7499 18.4422 27.5957 18.1346 27.2872C17.8269 26.9787 17.6731 26.6041 17.6731 26.1634V24.7499H5.32686ZM11.5461 4.90384H20.1769H2.91531H11.5461ZM17.5 15H2.49996H20.5H17.5ZM2.49996 12.75H20.5V7.1538H2.49996V12.75ZM6.25338 20.7115C6.79918 20.7115 7.26197 20.5204 7.64177 20.1384C8.02157 19.7563 8.21148 19.2924 8.21148 18.7466C8.21148 18.2008 8.02044 17.738 7.63836 17.3582C7.25631 16.9784 6.79238 16.7885 6.24655 16.7885C5.70075 16.7885 5.23795 16.9795 4.85815 17.3616C4.47835 17.7436 4.28845 18.2076 4.28845 18.7534C4.28845 19.2992 4.47949 19.762 4.86156 20.1418C5.24361 20.5216 5.70755 20.7115 6.25338 20.7115ZM16.7534 20.7115C17.2992 20.7115 17.762 20.5204 18.1418 20.1384C18.5216 19.7563 18.7115 19.2924 18.7115 18.7466C18.7115 18.2008 18.5204 17.738 18.1384 17.3582C17.7563 16.9784 17.2924 16.7885 16.7465 16.7885C16.2008 16.7885 15.738 16.9795 15.3582 17.3616C14.9784 17.7436 14.7885 18.2076 14.7885 18.7534C14.7885 19.2992 14.9795 19.762 15.3616 20.1418C15.7436 20.5216 16.2076 20.7115 16.7534 20.7115ZM2.91531 4.90384H20.1769C19.8596 4.30574 19.0558 3.8389 17.7654 3.50332C16.475 3.16775 14.4019 2.99996 11.5461 2.99996C8.7365 2.99996 6.68649 3.17545 5.39609 3.52643C4.10571 3.87738 3.27879 4.33651 2.91531 4.90384ZM5.49996 22.5H17.5C18.325 22.5 19.0312 22.2062 19.6187 21.6187C20.2062 21.0312 20.5 20.325 20.5 19.5V15H2.49996V19.5C2.49996 20.325 2.79371 21.0312 3.38121 21.6187C3.96871 22.2062 4.67496 22.5 5.49996 22.5Z" fill="#0F4C82"/>
</svg>
