<svg width="29" height="26" viewBox="0 0 29 26" fill="none" xmlns="http://www.w3.org/2000/svg">
<path d="M14.5 20.673C16.2211 20.673 17.6802 20.0744 18.8773 18.8773C20.0744 17.6802 20.673 16.2211 20.673 14.5C20.673 12.7788 20.0744 11.3197 18.8773 10.1226C17.6802 8.92549 16.2211 8.32694 14.5 8.32694C12.7788 8.32694 11.3197 8.92549 10.1226 10.1226C8.92549 11.3197 8.32694 12.7788 8.32694 14.5C8.32694 16.2211 8.92549 17.6802 10.1226 18.8773C11.3197 20.0744 12.7788 20.673 14.5 20.673ZM14.5 18.4231C13.3923 18.4231 12.4615 18.0461 11.7076 17.2923C10.9538 16.5384 10.5769 15.6077 10.5769 14.5C10.5769 13.3923 10.9538 12.4615 11.7076 11.7076C12.4615 10.9538 13.3923 10.5769 14.5 10.5769C15.6077 10.5769 16.5384 10.9538 17.2923 11.7076C18.0461 12.4615 18.4231 13.3923 18.4231 14.5C18.4231 15.6077 18.0461 16.5384 17.2923 17.2923C16.5384 18.0461 15.6077 18.4231 14.5 18.4231ZM2.96155 25.7499C2.20385 25.7499 1.5625 25.4874 1.0375 24.9624C0.5125 24.4374 0.25 23.7961 0.25 23.0384V5.96155C0.25 5.20385 0.5125 4.5625 1.0375 4.0375C1.5625 3.5125 2.20385 3.25 2.96155 3.25H7.54229L9.50384 1.12405C9.74999 0.852902 10.0476 0.639438 10.3966 0.483663C10.7457 0.327888 11.1134 0.25 11.5 0.25H17.5C17.8865 0.25 18.2543 0.327888 18.6033 0.483663C18.9523 0.639438 19.2499 0.852902 19.4961 1.12405L21.4576 3.25H26.0384C26.7961 3.25 27.4374 3.5125 27.9624 4.0375C28.4874 4.5625 28.7499 5.20385 28.7499 5.96155V23.0384C28.7499 23.7961 28.4874 24.4374 27.9624 24.9624C27.4374 25.4874 26.7961 25.7499 26.0384 25.7499H2.96155ZM2.96155 23.5H26.0384C26.173 23.5 26.2836 23.4567 26.3701 23.3701C26.4567 23.2836 26.5 23.173 26.5 23.0384V5.96155C26.5 5.82693 26.4567 5.71634 26.3701 5.62979C26.2836 5.54324 26.173 5.49996 26.0384 5.49996H20.4538L17.7019 2.49996H11.298L8.54612 5.49996H2.96155C2.82693 5.49996 2.71634 5.54324 2.62979 5.62979C2.54324 5.71634 2.49996 5.82693 2.49996 5.96155V23.0384C2.49996 23.173 2.54324 23.2836 2.62979 23.3701C2.71634 23.4567 2.82693 23.5 2.96155 23.5Z" fill="#0F4C82"/>
</svg>
