<svg width="36" height="30" viewBox="0 0 36 30" fill="none" xmlns="http://www.w3.org/2000/svg">
<path d="M35.9755 10.0073C35.6263 8.21563 34.2579 6.25082 32.2117 4.6074C30.0462 2.86829 27.3305 1.64204 24.5648 1.15457C22.4666 0.784584 20.7164 0.568443 18.8917 1.40833C10.8713 4.94111 0.434742 9.53814 0.426305 9.54179C0.419273 9.54812 0 9.71258 0 10.1882V10.1961V10.2003V15.8132C0 16.2014 0.314789 16.5163 0.703125 16.5163C1.86623 16.5163 2.8125 17.4626 2.8125 18.6257C2.8125 19.7888 1.86623 20.7351 0.703125 20.7351C0.314789 20.7351 0 21.0499 0 21.4382V27.0632C0 28.2263 0.946266 29.1726 2.10938 29.1726H12.7512C13.0025 29.1726 13.2347 29.0385 13.3603 28.8207C13.4859 28.603 13.4857 28.3348 13.3598 28.1173C13.1692 27.7878 12.976 27.2483 13.138 26.5492C13.3131 25.7946 13.9687 25.1577 14.732 25.0006C16.1198 24.7155 17.2969 25.7676 17.2969 27.0632C17.2969 27.4341 17.1994 27.7987 17.0151 28.1174C16.8893 28.335 16.8892 28.6031 17.0148 28.8208C17.1404 29.0385 17.3725 29.1726 17.6238 29.1726H33.8906C35.0537 29.1726 36 28.2263 36 27.0632V10.1882C36 10.1255 35.9909 10.0651 35.9755 10.0073ZM19.5 4.00012C21.0295 3.34227 22.1149 3.07938 24.5 3.50012C27.0366 3.94717 28.5263 4.57101 30.5104 6.16451C31.9869 7.35026 32.1669 7.7434 32.6562 9.00009H6.68157L19.5 4.00012ZM33.8906 26.5001C33.8906 26.8878 33.5752 27.2032 33.1875 27.2032H18.9291C18.976 26.9728 19 26.7371 19 26.5001C19 24.2896 16.682 22.7689 14.4487 23.2273C13.1451 23.4957 11.7422 24.5439 11.4424 25.8357C11.3233 26.3497 11.3414 26.5646 11.4424 27.0632H3.22801C2.84031 27.0632 2.5 26.3878 2.5 26.0001V22.0706C4.1027 21.744 5.3125 20.3234 5.3125 18.6257C5.3125 16.928 4.1027 15.5073 2.5 15.1807V11.0001H33.8906V26.5001Z" fill="#0F4C82"/>
</svg>
