<svg width="30" height="33" viewBox="0 0 30 33" fill="none" xmlns="http://www.w3.org/2000/svg">
<path d="M11.25 6.01929C10.4923 6.01929 9.84132 5.74717 9.29708 5.20295C8.75285 4.6587 8.48074 4.00774 8.48074 3.25006C8.48074 2.49239 8.75285 1.84142 9.29708 1.29717C9.84132 0.752947 10.4923 0.480835 11.25 0.480835C12.0076 0.480835 12.6586 0.752947 13.2029 1.29717C13.7471 1.84142 14.0192 2.49239 14.0192 3.25006C14.0192 4.00774 13.7471 4.6587 13.2029 5.20295C12.6586 5.74717 12.0076 6.01929 11.25 6.01929ZM1.99039 32.125L6.14423 10.7154L2.62492 12.201V17.125H0.375V10.6808L7.77398 7.64337C8.44898 7.36837 9.10523 7.31789 9.74273 7.49191C10.3802 7.66596 10.8769 8.05394 11.2326 8.65584L12.672 11.0414C13.3374 12.1222 14.2341 13.0121 15.362 13.7111C16.4899 14.4102 17.7442 14.7885 19.1249 14.8462V17.0962C17.4172 17.0385 15.8764 16.5947 14.5023 15.7649C13.1283 14.9351 11.9971 13.8913 11.1086 12.6336L9.99225 18.2732L13.1249 21.377V32.125H10.875V23.3702L7.07302 19.7789L4.33264 32.125H1.99039ZM22.3557 32.2693V11.2693H16.7307V1.23083H29.7692V11.2693H24.1442V32.2693H22.3557ZM24.0375 9.6308L27.4182 6.25006L24.0375 2.86932L22.7567 4.15006L23.9625 5.35583H18.9807V7.14429H23.9625L22.7567 8.35006L24.0375 9.6308Z" fill="#0F4C82"/>
</svg>
