<svg width="26" height="30" viewBox="0 0 26 30" fill="none" xmlns="http://www.w3.org/2000/svg">
<path d="M7.28831 6.4327C6.53063 6.4327 5.87968 6.16059 5.33546 5.61636C4.79123 5.07214 4.51912 4.42119 4.51912 3.66351C4.51912 2.90581 4.79123 2.25485 5.33546 1.71062C5.87968 1.1664 6.53063 0.894287 7.28831 0.894287C8.04601 0.894287 8.69697 1.1664 9.24119 1.71062C9.78542 2.25485 10.0575 2.90581 10.0575 3.66351C10.0575 4.42119 9.78542 5.07214 9.24119 5.61636C8.69697 6.16059 8.04601 6.4327 7.28831 6.4327ZM14.8749 26.2499H6.69993C5.94223 26.2499 5.25329 25.9922 4.63312 25.4768C4.01292 24.9615 3.62494 24.3249 3.46919 23.5673L0.529756 8.8384C0.448981 8.48842 0.522531 8.17786 0.750406 7.90671C0.978306 7.63556 1.27974 7.49999 1.65472 7.49999C1.91817 7.49999 2.15134 7.58364 2.35424 7.75094C2.55712 7.91824 2.68643 8.13361 2.74218 8.39706L5.78834 23.5384C5.81719 23.6538 5.88691 23.7596 5.99748 23.8558C6.10808 23.9519 6.22108 24 6.33648 24H14.8749C15.1942 24 15.4615 24.1077 15.6768 24.323C15.8922 24.5384 15.9999 24.8057 15.9999 25.1249C15.9999 25.4442 15.8922 25.7115 15.6768 25.9268C15.4615 26.1422 15.1942 26.2499 14.8749 26.2499ZM23.3701 28.5577L19.8422 22.5H9.21524C8.57679 22.5 8.02728 22.3077 7.56671 21.9231C7.10616 21.5385 6.80568 21.0365 6.66528 20.4173L4.95761 12.1904C4.71146 11.0769 4.96866 10.1082 5.72921 9.28416C6.48978 8.46011 7.39796 8.04809 8.45373 8.04809C9.24218 8.04809 9.96141 8.28415 10.6114 8.75627C11.2614 9.22837 11.6768 9.87116 11.8575 10.6846L13.5941 18.75H18.8152C19.2729 18.75 19.6979 18.8683 20.0902 19.1048C20.4825 19.3414 20.8018 19.6654 21.0479 20.077L25.3316 27.4327C25.4835 27.6961 25.5176 27.9812 25.434 28.288C25.3503 28.5947 25.1768 28.824 24.9133 28.9759C24.6499 29.1279 24.3648 29.162 24.058 29.0783C23.7513 28.9947 23.522 28.8211 23.3701 28.5577Z" fill="#0F4C82"/>
</svg>
