<svg width="20" height="32" viewBox="0 0 20 32" fill="none" xmlns="http://www.w3.org/2000/svg">
<path d="M9.99998 7.84625C9.63268 7.84625 9.31971 7.71692 9.06106 7.45827C8.80241 7.19962 8.67308 6.88664 8.67308 6.51934C8.67308 6.15204 8.80241 5.83907 9.06106 5.58042C9.31971 5.32177 9.63268 5.19244 9.99998 5.19244C10.3673 5.19244 10.6803 5.32177 10.9389 5.58042C11.1976 5.83907 11.3269 6.15204 11.3269 6.51934C11.3269 6.88664 11.1976 7.19962 10.9389 7.45827C10.6803 7.71692 10.3673 7.84625 9.99998 7.84625ZM9.99998 3.11547C9.63268 3.11547 9.31971 2.98615 9.06106 2.72749C8.80241 2.46884 8.67308 2.15587 8.67308 1.78857C8.67308 1.42127 8.80241 1.1083 9.06106 0.849645C9.31971 0.590995 9.63268 0.46167 9.99998 0.46167C10.3673 0.46167 10.6803 0.590995 10.9389 0.849645C11.1976 1.1083 11.3269 1.42127 11.3269 1.78857C11.3269 2.15587 11.1976 2.46884 10.9389 2.72749C10.6803 2.98615 10.3673 3.11547 9.99998 3.11547ZM5.09041 31.8173C3.67311 30.9635 2.56735 29.8231 1.77312 28.3962C0.978895 26.9693 0.576983 25.427 0.567383 23.7693C0.576983 21.9174 1.08082 20.2217 2.07889 18.6823C3.07697 17.1429 4.41927 15.9742 6.10579 15.1761V11.3078C6.10579 10.9891 6.21361 10.7219 6.42923 10.5063C6.64486 10.2907 6.91203 10.1829 7.23076 10.1829H12.7692C13.0879 10.1829 13.3551 10.2907 13.5707 10.5063C13.7864 10.7219 13.8942 10.9891 13.8942 11.3078V15.1761C15.5653 15.9742 16.9038 17.1429 17.9095 18.6823C18.9153 20.2217 19.423 21.9174 19.4326 23.7693C19.423 25.427 19.0211 26.9693 18.2268 28.3962C17.4326 29.8231 16.3269 30.9635 14.9096 31.8173H5.09041ZM5.75963 29.5674H14.2403C15.1615 28.8712 15.8822 28.0211 16.4024 27.0171C16.9226 26.0131 17.1827 24.9305 17.1827 23.7693C17.1827 22.3841 16.8158 21.1123 16.0822 19.9539C15.3485 18.7956 14.3529 17.9135 13.0952 17.3078L11.6442 16.6126V12.4328H8.35576V16.6126L6.90481 17.3078C5.64711 17.9135 4.65143 18.7956 3.91778 19.9539C3.18413 21.1123 2.81731 22.3841 2.81731 23.7693C2.81731 24.9305 3.07741 26.0131 3.59761 27.0171C4.11781 28.0211 4.83848 28.8712 5.75963 29.5674ZM2.0384 4.61547C1.6711 4.61547 1.35812 4.48615 1.09947 4.22749C0.84082 3.96884 0.711495 3.65587 0.711495 3.28857C0.711495 2.92127 0.84082 2.6083 1.09947 2.34965C1.35812 2.091 1.6711 1.96167 2.0384 1.96167C2.40572 1.96167 2.71871 2.091 2.97736 2.34965C3.23601 2.6083 3.36533 2.92127 3.36533 3.28857C3.36533 3.65587 3.23601 3.96884 2.97736 4.22749C2.71871 4.48615 2.40572 4.61547 2.0384 4.61547ZM17.9616 4.61547C17.5942 4.61547 17.2813 4.48615 17.0226 4.22749C16.764 3.96884 16.6346 3.65587 16.6346 3.28857C16.6346 2.92127 16.764 2.6083 17.0226 2.34965C17.2813 2.091 17.5942 1.96167 17.9616 1.96167C18.3289 1.96167 18.6418 2.091 18.9005 2.34965C19.1591 2.6083 19.2885 2.92127 19.2885 3.28857C19.2885 3.65587 19.1591 3.96884 18.9005 4.22749C18.6418 4.48615 18.3289 4.61547 17.9616 4.61547ZM5.26921 7.84625C4.90191 7.84625 4.58892 7.71692 4.33025 7.45827C4.0716 7.19962 3.94227 6.88664 3.94227 6.51934C3.94227 6.15204 4.0716 5.83907 4.33025 5.58042C4.58892 5.32177 4.90191 5.19244 5.26921 5.19244C5.63651 5.19244 5.94948 5.32177 6.20813 5.58042C6.46678 5.83907 6.59611 6.15204 6.59611 6.51934C6.59611 6.88664 6.46678 7.19962 6.20813 7.45827C5.94948 7.71692 5.63651 7.84625 5.26921 7.84625ZM14.7308 7.84625C14.3635 7.84625 14.0505 7.71692 13.7918 7.45827C13.5332 7.19962 13.4039 6.88664 13.4039 6.51934C13.4039 6.15204 13.5332 5.83907 13.7918 5.58042C14.0505 5.32177 14.3635 5.19244 14.7308 5.19244C15.0981 5.19244 15.411 5.32177 15.6697 5.58042C15.9284 5.83907 16.0577 6.15204 16.0577 6.51934C16.0577 6.88664 15.9284 7.19962 15.6697 7.45827C15.411 7.71692 15.0981 7.84625 14.7308 7.84625Z" fill="#0F4C82"/>
</svg>
