<svg width="16" height="17" viewBox="0 0 16 17" fill="none" xmlns="http://www.w3.org/2000/svg">
<g id="edit-2">
<path id="Vector" d="M11.3333 2.50001C11.5083 2.32491 11.7162 2.18602 11.945 2.09126C12.1738 1.9965 12.419 1.94772 12.6666 1.94772C12.9142 1.94772 13.1594 1.9965 13.3882 2.09126C13.617 2.18602 13.8248 2.32491 13.9999 2.50001C14.175 2.6751 14.3139 2.88297 14.4087 3.11175C14.5034 3.34052 14.5522 3.58572 14.5522 3.83334C14.5522 4.08096 14.5034 4.32616 14.4087 4.55494C14.3139 4.78371 14.175 4.99158 13.9999 5.16668L4.99992 14.1667L1.33325 15.1667L2.33325 11.5L11.3333 2.50001Z" stroke="#0F4C82" stroke-linecap="round" stroke-linejoin="round"/>
</g>
</svg>
