<svg width="32" height="30" viewBox="0 0 32 30" fill="none" xmlns="http://www.w3.org/2000/svg">
<path d="M32 15V13.125C32 11.8851 31.1931 10.8307 30.077 10.4575C29.7079 7.40494 27.235 4.99169 24.1554 4.71456L22.5259 1.45575C22.3673 1.13813 22.0426 0.9375 21.6875 0.9375H17.9375C17.4198 0.9375 17 1.35725 17 1.875C17 2.39275 17.4198 2.8125 17.9375 2.8125H21.1081L22.0456 4.6875H21.6875C20.1367 4.6875 18.875 5.94919 18.875 7.5V11.0978L18.5117 12.1875H11.7791L11.6666 11.9443C11.2081 10.9531 10.2061 10.3125 9.11388 10.3125H0.9375C0.41975 10.3125 0 10.7323 0 11.25C0 12.5519 0.361813 13.8254 1.04619 14.9328C1.55087 15.7494 2.21525 16.449 2.99606 16.9938C1.19419 18.1649 0 20.1955 0 22.5C0 26.1186 2.94394 29.0625 6.5625 29.0625C9.86275 29.0625 12.6014 26.6135 13.0577 23.4375H18.9422C19.3986 26.6135 22.1372 29.0625 25.4375 29.0625C29.0561 29.0625 32 26.1186 32 22.5C32 20.6145 31.2004 18.9124 29.9229 17.7143C31.1181 17.3902 32 16.2964 32 15ZM20.75 7.5C20.75 6.98306 21.1706 6.5625 21.6875 6.5625H23.557C23.5591 6.5625 23.5611 6.56269 23.5632 6.56269C23.564 6.56269 23.5649 6.56256 23.5657 6.56256C25.8279 6.56413 27.7204 8.17656 28.1558 10.3125C28.0694 10.3125 21.1046 10.3125 20.75 10.3125V7.5ZM17.8867 14.0625L17.2617 15.9375H13.5134L12.6462 14.0625H17.8867ZM6.5625 27.1875C3.97781 27.1875 1.875 25.0847 1.875 22.5C1.875 19.9153 3.97781 17.8125 6.5625 17.8125C9.14719 17.8125 11.25 19.9153 11.25 22.5C11.25 25.0847 9.14719 27.1875 6.5625 27.1875ZM30.125 22.5C30.125 25.0847 28.0222 27.1875 25.4375 27.1875C22.8528 27.1875 20.75 25.0847 20.75 22.5C20.75 19.9153 22.8528 17.8125 25.4375 17.8125C28.0222 17.8125 30.125 19.9153 30.125 22.5ZM30.125 15C30.125 15.5169 29.7044 15.9375 29.1875 15.9375H25.4375C22.1372 15.9375 19.3986 18.3865 18.9422 21.5625H13.0577C12.6014 18.3865 9.86275 15.9375 6.5625 15.9375C6.09137 15.9375 5.63181 15.9879 5.1885 16.0826C4.88644 15.8921 2.48213 15.0411 1.95975 12.1875H9.11388C9.47794 12.1875 9.81194 12.4011 9.96481 12.7314L12.0632 17.2686C12.2166 17.6002 12.5488 17.8125 12.9141 17.8125H17.9375C18.341 17.8125 18.6993 17.5543 18.8269 17.1715L20.0822 13.4055C20.0824 13.4047 20.0828 13.4039 20.083 13.4031L20.4883 12.1875C20.5756 12.1875 28.9416 12.1875 29.1875 12.1875C29.7044 12.1875 30.125 12.6081 30.125 13.125V15Z" fill="#0F4C82"/>
</svg>
