<svg width="33" height="27" viewBox="0 0 33 27" fill="none" xmlns="http://www.w3.org/2000/svg">
<path d="M3.46155 23.2499C2.70385 23.2499 2.0625 22.9874 1.5375 22.4624C1.0125 21.9374 0.75 21.2961 0.75 20.5384V3.46155C0.75 2.70385 1.0125 2.0625 1.5375 1.5375C2.0625 1.0125 2.70385 0.75 3.46155 0.75H26.5384C27.2961 0.75 27.9374 1.0125 28.4624 1.5375C28.9874 2.0625 29.2499 2.70385 29.2499 3.46155V11.3942H2.99996V20.5384C2.99996 20.6538 3.04804 20.7596 3.14419 20.8557C3.24036 20.9519 3.34615 21 3.46155 21H16.2692C16.5879 21 16.8551 21.1078 17.0707 21.3236C17.2863 21.5393 17.3941 21.8065 17.3941 22.1255C17.3941 22.4443 17.2863 22.7114 17.0707 22.9268C16.8551 23.1422 16.5879 23.2499 16.2692 23.2499H3.46155ZM2.99996 6.60578H27V3.46155C27 3.34615 26.9519 3.24036 26.8557 3.14419C26.7596 3.04804 26.6538 2.99996 26.5384 2.99996H3.46155C3.34615 2.99996 3.24036 3.04804 3.14419 3.14419C3.04804 3.24036 2.99996 3.34615 2.99996 3.46155V6.60578ZM25.875 22.1249H22.5C22.1812 22.1249 21.914 22.0171 21.6984 21.8014C21.4828 21.5856 21.375 21.3183 21.375 20.9995C21.375 20.6806 21.4828 20.4134 21.6984 20.1981C21.914 19.9827 22.1812 19.875 22.5 19.875H25.875V16.5C25.875 16.1812 25.9829 15.914 26.1986 15.6984C26.4143 15.4828 26.6816 15.375 27.0005 15.375C27.3194 15.375 27.5865 15.4828 27.8019 15.6984C28.0172 15.914 28.1249 16.1812 28.1249 16.5V19.875H31.5C31.8187 19.875 32.0859 19.9829 32.3015 20.1986C32.5171 20.4143 32.6249 20.6816 32.6249 21.0005C32.6249 21.3193 32.5171 21.5865 32.3015 21.8019C32.0859 22.0172 31.8187 22.1249 31.5 22.1249H28.1249V25.5C28.1249 25.8187 28.0171 26.0859 27.8014 26.3015C27.5857 26.5171 27.3184 26.625 26.9995 26.625C26.6806 26.625 26.4134 26.5172 26.1981 26.3016C25.9827 26.0859 25.875 25.8187 25.875 25.5V22.1249Z" fill="#0F4C82"/>
</svg>
