<svg width="30" height="30" viewBox="0 0 30 30" fill="none" xmlns="http://www.w3.org/2000/svg">
<path d="M3.46155 29.2499C2.70385 29.2499 2.0625 28.9874 1.5375 28.4624C1.0125 27.9374 0.75 27.2961 0.75 26.5384V3.46155C0.75 2.70385 1.0125 2.0625 1.5375 1.5375C2.0625 1.0125 2.70385 0.75 3.46155 0.75H26.5384C27.2961 0.75 27.9374 1.0125 28.4624 1.5375C28.9874 2.0625 29.2499 2.70385 29.2499 3.46155V26.5384C29.2499 27.2961 28.9874 27.9374 28.4624 28.4624C27.9374 28.9874 27.2961 29.2499 26.5384 29.2499H3.46155ZM2.99996 20.6249V26.5384C2.99996 26.673 3.04324 26.7836 3.12979 26.8701C3.21634 26.9567 3.32693 27 3.46155 27H6.375V23.6826H5.6394C5.45865 23.6826 5.30049 23.6149 5.16491 23.4793C5.02934 23.3437 4.96155 23.1855 4.96155 23.0048V20.6249H2.99996ZM2.99996 18.375H4.96155V18.0577C4.96155 17.6981 5.08318 17.3966 5.32643 17.1534C5.5697 16.9101 5.87114 16.7885 6.23074 16.7885V13.125C6.23074 12.5641 6.42705 12.0873 6.81968 11.6947C7.2123 11.3021 7.68906 11.1058 8.24996 11.1058H11.25C11.8109 11.1058 12.2876 11.3021 12.6803 11.6947C13.0729 12.0873 13.2692 12.5641 13.2692 13.125V16.7885C13.6269 16.7885 13.9278 16.9101 14.172 17.1534C14.4163 17.3966 14.5384 17.6981 14.5384 18.0577V18.375H27V3.46155C27 3.32693 26.9567 3.21634 26.8701 3.12979C26.7836 3.04324 26.673 2.99996 26.5384 2.99996H3.46155C3.32693 2.99996 3.21634 3.04324 3.12979 3.12979C3.04324 3.21634 2.99996 3.32693 2.99996 3.46155V18.375ZM6.74996 21.8942H12.75V18.5769H6.74996V21.8942ZM9.75338 9.60578C9.19343 9.60578 8.71633 9.40979 8.32208 9.01781C7.92785 8.62586 7.73074 8.14991 7.73074 7.58996C7.73074 7.03001 7.92673 6.55293 8.3187 6.1587C8.71068 5.76447 9.18662 5.56736 9.74655 5.56736C10.3065 5.56736 10.7836 5.76334 11.1778 6.15529C11.5721 6.54726 11.7692 7.02323 11.7692 7.58318C11.7692 8.14313 11.5732 8.62021 11.1812 9.01444C10.7892 9.40866 10.3133 9.60578 9.75338 9.60578ZM9.0288 27H10.4711V23.6826H9.0288V27ZM13.1249 27H26.5384C26.673 27 26.7836 26.9567 26.8701 26.8701C26.9567 26.7836 27 26.673 27 26.5384V20.6249H14.5384V23.0048C14.5384 23.1855 14.4706 23.3437 14.335 23.4793C14.1994 23.6149 14.0413 23.6826 13.8605 23.6826H13.1249V27ZM14.7981 8.81824C14.4423 8.36696 14.1755 7.91569 13.9976 7.46441C13.8197 7.01314 13.7307 6.54999 13.7307 6.07496V5.62496C13.7557 5.38266 13.8548 5.17305 14.0278 4.99613C14.2009 4.8192 14.4095 4.73074 14.6538 4.73074C14.9022 4.73074 15.1124 4.81776 15.2843 4.99181C15.4563 5.16584 15.5346 5.37689 15.5192 5.62496V6.07496C15.5192 6.37641 15.5827 6.671 15.7096 6.95873C15.8365 7.24648 16.0423 7.54996 16.3269 7.86919C16.7565 8.39339 17.0668 8.88781 17.2578 9.35246C17.4487 9.81709 17.5442 10.2996 17.5442 10.8C17.5442 11.0625 17.4533 11.2896 17.2716 11.4815C17.0899 11.6733 16.8677 11.7692 16.6053 11.7692C16.3428 11.7692 16.1293 11.6733 15.9649 11.4815C15.8005 11.2896 15.7182 11.0625 15.7182 10.8C15.7182 10.4711 15.6548 10.1697 15.5279 9.89561C15.4009 9.62159 15.1577 9.26246 14.7981 8.81824ZM18.5481 8.81824C18.1923 8.36696 17.9255 7.91569 17.7476 7.46441C17.5697 7.01314 17.4807 6.54999 17.4807 6.07496V5.62496C17.5057 5.38266 17.6048 5.17305 17.7778 4.99613C17.9509 4.8192 18.1595 4.73074 18.4038 4.73074C18.6522 4.73074 18.8624 4.81776 19.0343 4.99181C19.2063 5.16584 19.2846 5.37689 19.2692 5.62496V6.07496C19.2692 6.37641 19.3326 6.671 19.4596 6.95873C19.5865 7.24648 19.7923 7.54996 20.0769 7.86919C20.5065 8.39339 20.8168 8.88781 21.0078 9.35246C21.1987 9.81709 21.2942 10.2996 21.2942 10.8C21.2942 11.0625 21.2033 11.2896 21.0216 11.4815C20.8399 11.6733 20.6177 11.7692 20.3553 11.7692C20.0928 11.7692 19.8793 11.6733 19.7149 11.4815C19.5505 11.2896 19.4682 11.0625 19.4682 10.8C19.4682 10.4711 19.4048 10.1697 19.2779 9.89561C19.1509 9.62159 18.9077 9.26246 18.5481 8.81824ZM22.3731 8.81824C22.0173 8.36696 21.7505 7.91569 21.5726 7.46441C21.3947 7.01314 21.3057 6.54999 21.3057 6.07496V5.62496C21.3307 5.38266 21.4298 5.17305 21.6028 4.99613C21.7759 4.8192 21.9845 4.73074 22.2288 4.73074C22.4772 4.73074 22.6874 4.81776 22.8593 4.99181C23.0313 5.16584 23.1096 5.37689 23.0942 5.62496V6.07496C23.0942 6.37641 23.1576 6.671 23.2846 6.95873C23.4115 7.24648 23.6173 7.54996 23.9019 7.86919C24.3315 8.39339 24.6418 8.88781 24.8328 9.35246C25.0237 9.81709 25.1192 10.2996 25.1192 10.8C25.1192 11.0625 25.0307 11.2896 24.8538 11.4815C24.6769 11.6733 24.4572 11.7692 24.1947 11.7692C23.9322 11.7692 23.7163 11.6733 23.5471 11.4815C23.3779 11.2896 23.2932 11.0625 23.2932 10.8C23.2932 10.4711 23.2298 10.1697 23.1029 9.89561C22.9759 9.62159 22.7327 9.26246 22.3731 8.81824Z" fill="#0F4C82"/>
</svg>
