<svg width="29" height="25" viewBox="0 0 29 25" fill="none" xmlns="http://www.w3.org/2000/svg">
<path d="M5.55751 11.5617V14.1549C5.05751 14.5049 4.68251 14.8684 4.43251 15.2453C4.18251 15.6222 4.05751 15.9828 4.05751 16.327C4.05751 16.4482 4.06905 16.5669 4.09213 16.6833C4.1152 16.7996 4.16231 16.9184 4.23346 17.0395L4.99494 17.4087L7.18153 17.9568L8.58057 17.8415C8.72097 17.8318 8.85511 17.866 8.98299 17.9439C9.11086 18.0217 9.1998 18.1309 9.2498 18.2712L9.31617 18.4645L10.7614 17.9107C10.8075 17.8953 10.9681 17.8626 11.2431 17.8126H16.2017C16.3171 17.8126 16.42 17.8352 16.5104 17.8804C16.6007 17.9256 16.6786 17.9934 16.744 18.0837L17.5777 19.1799L21.5325 18.5799L22.8709 16.6703C22.9363 16.5799 23.0142 16.5121 23.1046 16.4669C23.195 16.4217 23.2978 16.3991 23.4132 16.3991H24.9421V16.327C24.9421 15.9828 24.8171 15.6222 24.5671 15.2453C24.3171 14.8684 23.9421 14.5049 23.4421 14.1549V11.5617C24.6517 12.2001 25.5791 12.9333 26.2243 13.7612C26.8695 14.5891 27.1921 15.4492 27.1921 16.3415C27.1921 16.3607 27.1896 16.3823 27.1848 16.4064C27.18 16.4304 27.1776 16.452 27.1776 16.4713L28.2882 18.1184C28.3382 18.2088 28.3757 18.3015 28.4007 18.3967C28.4257 18.4919 28.4132 18.5924 28.3632 18.6982L27.2642 21.9606C27.2142 22.101 27.1339 22.214 27.0233 22.2996C26.9127 22.3851 26.7796 22.4279 26.6238 22.4279H22.6286L22.6805 22.6645C22.7305 22.8202 22.7142 22.9683 22.6315 23.1087C22.5488 23.2491 22.4296 23.352 22.2738 23.4174L19.6517 24.4645C19.6209 24.4799 19.4527 24.5125 19.1469 24.5625H10.1498C10.0094 24.5625 9.8777 24.5236 9.75463 24.4457C9.63155 24.3678 9.54501 24.2587 9.49501 24.1183L9.30751 23.602L5.64984 24.4731C5.54406 24.4981 5.44743 24.5005 5.35993 24.4803C5.27243 24.4601 5.18349 24.425 5.09311 24.375L0.795051 21.2972C0.704676 21.2318 0.636888 21.1539 0.591688 21.0635C0.546513 20.9732 0.523926 20.8703 0.523926 20.7549V18.1616C0.523926 18.0212 0.556613 17.8982 0.621988 17.7924C0.687363 17.6866 0.777751 17.6087 0.893151 17.5587L1.89699 17.0684C1.86236 16.9434 1.8388 16.8222 1.8263 16.7049C1.8138 16.5876 1.80755 16.4665 1.80755 16.3415C1.80755 15.4492 2.13014 14.5891 2.77531 13.7612C3.42051 12.9333 4.34791 12.2001 5.55751 11.5617ZM3.2816 20.7953L4.84216 19.2491L3.17773 18.4212L2.31234 18.8539V20.1462L3.2816 20.7953ZM5.78829 22.601L8.70177 21.9116L7.8335 19.601H6.99984L4.80463 21.8106L5.78829 22.601ZM10.9114 22.7741H15.42L16.4613 20.677L15.6392 19.601H11.344L9.96807 20.1693L10.9114 22.7741ZM17.4594 22.7741H19.069L20.7017 22.1077L20.3959 20.5645L18.5498 20.8558L17.4594 22.7741ZM22.3171 20.6539H25.8392L26.5055 18.6405L26.194 18.1876H23.9988L22.3171 20.6539ZM5.97005 7.92994C5.42968 7.21456 4.98833 6.44389 4.646 5.61791C4.3037 4.79196 4.13255 3.9261 4.13255 3.02032V2.48812C4.13255 2.31792 4.14505 2.14053 4.17005 1.95593C4.21043 1.6367 4.33061 1.36555 4.53061 1.14248C4.73061 0.9194 4.98541 0.807861 5.29501 0.807861C5.62964 0.807861 5.91089 0.9194 6.13876 1.14248C6.36664 1.36555 6.46039 1.6367 6.42001 1.95593C6.39501 2.11553 6.37626 2.27417 6.36376 2.43187C6.35126 2.58957 6.34501 2.74822 6.34501 2.90782C6.34501 3.70207 6.5301 4.44871 6.90028 5.14774C7.27048 5.84679 7.69789 6.51842 8.18251 7.16265C8.69789 7.8588 9.13298 8.59726 9.48778 9.37804C9.8426 10.1588 10.02 10.9771 10.02 11.8328V12.4098C10.0046 12.729 9.89307 13.0001 9.6854 13.2232C9.4777 13.4463 9.21424 13.5578 8.89501 13.5578C8.57579 13.5578 8.3008 13.4501 8.07005 13.2347C7.83928 13.0194 7.73928 12.7521 7.77005 12.4328C7.78543 12.3078 7.79553 12.1953 7.80035 12.0953C7.80515 11.9953 7.80755 11.8828 7.80755 11.7578C7.80755 11.0232 7.61236 10.3477 7.22199 9.7314C6.83159 9.11505 6.41428 8.51456 5.97005 7.92994ZM11.5373 7.92994C10.9969 7.21456 10.5556 6.44389 10.2133 5.61791C9.87099 4.79196 9.69984 3.9261 9.69984 3.02032V2.48812C9.69984 2.31792 9.71234 2.14053 9.73734 1.95593C9.77771 1.6367 9.8979 1.36555 10.0979 1.14248C10.2979 0.9194 10.5527 0.807861 10.8623 0.807861C11.1969 0.807861 11.4781 0.9194 11.706 1.14248C11.9339 1.36555 12.0277 1.6367 11.9873 1.95593C11.9623 2.11553 11.9435 2.27417 11.931 2.43187C11.9185 2.58957 11.9123 2.74822 11.9123 2.90782C11.9123 3.70207 12.0974 4.44871 12.4676 5.14774C12.8378 5.84679 13.2652 6.51842 13.7498 7.16265C14.2652 7.8588 14.7003 8.59726 15.0551 9.37804C15.4099 10.1588 15.5873 10.9771 15.5873 11.8328V12.4098C15.5719 12.729 15.4604 13.0001 15.2526 13.2232C15.045 13.4463 14.7815 13.5578 14.4623 13.5578C14.1431 13.5578 13.8681 13.4501 13.6373 13.2347C13.4066 13.0194 13.3066 12.7521 13.3373 12.4328C13.3527 12.3078 13.3628 12.1953 13.3676 12.0953C13.3724 11.9953 13.3748 11.8828 13.3748 11.7578C13.3748 11.0232 13.1796 10.3477 12.7892 9.7314C12.3989 9.11505 11.9816 8.51456 11.5373 7.92994ZM17.1046 7.92994C16.5642 7.21456 16.1229 6.44389 15.7806 5.61791C15.4382 4.79196 15.2671 3.9261 15.2671 3.02032V2.48812C15.2671 2.31792 15.2796 2.14053 15.3046 1.95593C15.345 1.6367 15.4652 1.36555 15.6652 1.14248C15.8652 0.9194 16.12 0.807861 16.4296 0.807861C16.7642 0.807861 17.0454 0.9194 17.2733 1.14248C17.5012 1.36555 17.5949 1.6367 17.5546 1.95593C17.5296 2.11553 17.5108 2.27417 17.4983 2.43187C17.4858 2.58957 17.4796 2.74822 17.4796 2.90782C17.4796 3.70207 17.6646 4.44871 18.0348 5.14774C18.405 5.84679 18.8324 6.51842 19.3171 7.16265C19.8324 7.8588 20.2675 8.59726 20.6224 9.37804C20.9771 10.1588 21.1546 10.9771 21.1546 11.8328V12.4098C21.1392 12.729 21.0276 13.0001 20.8199 13.2232C20.6123 13.4463 20.3488 13.5578 20.0296 13.5578C19.7104 13.5578 19.4354 13.4501 19.2046 13.2347C18.9738 13.0194 18.8738 12.7521 18.9046 12.4328C18.92 12.3078 18.9301 12.1953 18.9349 12.0953C18.9397 11.9953 18.9421 11.8828 18.9421 11.7578C18.9421 11.0232 18.7469 10.3477 18.3565 9.7314C17.9662 9.11505 17.5488 8.51456 17.1046 7.92994Z" fill="#0F4C82"/>
</svg>
